<svg xmlns="http://www.w3.org/2000/svg" viewBox="0 0 1200 600" role="img" aria-labelledby="title desc">
  <title id="title">Example article cover</title>
  <desc id="desc">Abstract editorial layout blocks for a Markdown fixture article.</desc>
  <rect width="1200" height="600" fill="#f7f4eb"/>
  <rect x="72" y="72" width="1056" height="456" rx="18" fill="#ede7d6" stroke="#d8d0bc"/>
  <rect x="132" y="132" width="400" height="48" rx="6" fill="#20231d"/>
  <rect x="132" y="204" width="552" height="16" rx="3" fill="#7f8f4e"/>
  <rect x="132" y="236" width="464" height="16" rx="3" fill="#b9b095"/>
  <rect x="132" y="292" width="936" height="1" fill="#d0c7b2"/>
  <rect x="132" y="340" width="232" height="116" rx="8" fill="#7f8f4e"/>
  <rect x="400" y="340" width="232" height="116" rx="8" fill="#d7dcc7"/>
  <rect x="668" y="340" width="232" height="116" rx="8" fill="#c8c0a8"/>
  <rect x="936" y="340" width="132" height="116" rx="8" fill="#20231d"/>
  <path d="M160 474 C310 394 460 526 610 446 S910 394 1040 478" fill="none" stroke="#7f8f4e" stroke-width="8" stroke-linecap="round"/>
  <text x="132" y="178" fill="#f7f4eb" font-family="Inter, Arial, sans-serif" font-size="34" font-weight="700">Markdown Fixture</text>
  <text x="132" y="258" fill="#6f6a5c" font-family="JetBrains Mono, monospace" font-size="24">figure · table · code · footnote</text>
</svg>
